<svg width="200" height="200" viewBox="0 0 200 200" fill="none" xmlns="http://www.w3.org/2000/svg">
<rect width="200" height="200" rx="40" fill="#3FB6DE"/>
<path d="M83.75 132.5V62.0833L148.75 51.25V121.667M83.75 132.5C83.75 141.475 76.4746 148.75 67.5 148.75C58.5254 148.75 51.25 141.475 51.25 132.5C51.25 123.525 58.5254 116.25 67.5 116.25C76.4746 116.25 83.75 123.525 83.75 132.5ZM148.75 121.667C148.75 130.641 141.475 137.917 132.5 137.917C123.525 137.917 116.25 130.641 116.25 121.667C116.25 112.692 123.525 105.417 132.5 105.417C141.475 105.417 148.75 112.692 148.75 121.667Z" stroke="#F5F5F5" stroke-width="4" stroke-linecap="round" stroke-linejoin="round"/>
</svg>
